<svg width="55" height="25" viewBox="0 0 55 25" fill="none" xmlns="http://www.w3.org/2000/svg">
<g clip-path="url(#clip0_172_6472)">
<path d="M12 24.5132C18.6274 24.5132 24 19.1407 24 12.5132C24 5.88582 18.6274 0.513306 12 0.513306C5.37258 0.513306 0 5.88582 0 12.5132C0 19.1407 5.37258 24.5132 12 24.5132Z" fill="#666666"/>
<path d="M9.53674e-07 36.5C6.62742 36.5 12 31.1274 12 24.5C12 17.8726 6.62742 12.5 9.53674e-07 12.5C-6.62742 12.5 -12 17.8726 -12 24.5C-12 31.1274 -6.62742 36.5 9.53674e-07 36.5Z" fill="#1A1A1A"/>
<path d="M24 36.5C30.6274 36.5 36 31.1274 36 24.5C36 17.8726 30.6274 12.5 24 12.5C17.3726 12.5 12 17.8726 12 24.5C12 31.1274 17.3726 36.5 24 36.5Z" fill="#1A1A1A"/>
<path d="M9.53674e-07 12.5C6.62742 12.5 12 7.12742 12 0.500001C12 -6.12742 6.62742 -11.5 9.53674e-07 -11.5C-6.62742 -11.5 -12 -6.12742 -12 0.500001C-12 7.12742 -6.62742 12.5 9.53674e-07 12.5Z" fill="#1A1A1A"/>
<path d="M24 12.5C30.6274 12.5 36 7.12742 36 0.500001C36 -6.12742 30.6274 -11.5 24 -11.5C17.3726 -11.5 12 -6.12742 12 0.500001C12 7.12742 17.3726 12.5 24 12.5Z" fill="#1A1A1A"/>
</g>
<g clip-path="url(#clip1_172_6472)">
<path d="M36.0008 19.7081C39.9772 19.7081 43.2008 16.4845 43.2008 12.5081C43.2008 8.53162 39.9772 5.30811 36.0008 5.30811C32.0243 5.30811 28.8008 8.53162 28.8008 12.5081C28.8008 16.4845 32.0243 19.7081 36.0008 19.7081Z" fill="#333333"/>
<path d="M28.8016 26.9001C32.778 26.9001 36.0016 23.6766 36.0016 19.7001C36.0016 15.7237 32.778 12.5001 28.8016 12.5001C24.8251 12.5001 21.6016 15.7237 21.6016 19.7001C21.6016 23.6766 24.8251 26.9001 28.8016 26.9001Z" fill="#1A1A1A"/>
<path d="M43.2 26.9001C47.1764 26.9001 50.4 23.6766 50.4 19.7001C50.4 15.7237 47.1764 12.5001 43.2 12.5001C39.2235 12.5001 36 15.7237 36 19.7001C36 23.6766 39.2235 26.9001 43.2 26.9001Z" fill="#1A1A1A"/>
<path d="M28.8016 12.5001C32.778 12.5001 36.0016 9.27655 36.0016 5.3001C36.0016 1.32365 32.778 -1.8999 28.8016 -1.8999C24.8251 -1.8999 21.6016 1.32365 21.6016 5.3001C21.6016 9.27655 24.8251 12.5001 28.8016 12.5001Z" fill="#1A1A1A"/>
<path d="M43.2 12.5001C47.1764 12.5001 50.4 9.27655 50.4 5.3001C50.4 1.32365 47.1764 -1.8999 43.2 -1.8999C39.2235 -1.8999 36 1.32365 36 5.3001C36 9.27655 39.2235 12.5001 43.2 12.5001Z" fill="#1A1A1A"/>
</g>
<g clip-path="url(#clip2_172_6472)">
<path d="M51.36 15.8638C53.2157 15.8638 54.72 14.3595 54.72 12.5038C54.72 10.6481 53.2157 9.1438 51.36 9.1438C49.5043 9.1438 48 10.6481 48 12.5038C48 14.3595 49.5043 15.8638 51.36 15.8638Z" fill="#333333"/>
<path d="M48.0006 19.22C49.8563 19.22 51.3606 17.7157 51.3606 15.86C51.3606 14.0043 49.8563 12.5 48.0006 12.5C46.1449 12.5 44.6406 14.0043 44.6406 15.86C44.6406 17.7157 46.1449 19.22 48.0006 19.22Z" fill="#1A1A1A"/>
<path d="M54.7194 19.22C56.5751 19.22 58.0794 17.7157 58.0794 15.86C58.0794 14.0043 56.5751 12.5 54.7194 12.5C52.8637 12.5 51.3594 14.0043 51.3594 15.86C51.3594 17.7157 52.8637 19.22 54.7194 19.22Z" fill="#1A1A1A"/>
<path d="M48.0006 12.5C49.8563 12.5 51.3606 10.9957 51.3606 9.14003C51.3606 7.28435 49.8563 5.78003 48.0006 5.78003C46.1449 5.78003 44.6406 7.28435 44.6406 9.14003C44.6406 10.9957 46.1449 12.5 48.0006 12.5Z" fill="#1A1A1A"/>
<path d="M54.7194 12.5C56.5751 12.5 58.0794 10.9957 58.0794 9.14003C58.0794 7.28435 56.5751 5.78003 54.7194 5.78003C52.8637 5.78003 51.3594 7.28435 51.3594 9.14003C51.3594 10.9957 52.8637 12.5 54.7194 12.5Z" fill="#1A1A1A"/>
</g>
<defs>
<clipPath id="clip0_172_6472">
<rect width="24" height="24" fill="white" transform="translate(0 0.5)"/>
</clipPath>
<clipPath id="clip1_172_6472">
<rect width="14.4" height="14.4" fill="white" transform="translate(28.8008 5.30005)"/>
</clipPath>
<clipPath id="clip2_172_6472">
<rect width="6.72" height="6.72" fill="white" transform="translate(48 9.14001)"/>
</clipPath>
</defs>
</svg>
